<mxfile host="app.diagrams.net" modified="2021-12-29T07:42:10.948Z" agent="5.0 (Macintosh; Intel Mac OS X 10_15_7) AppleWebKit/537.36 (KHTML, like Gecko) Chrome/96.0.4664.110 Safari/537.36" etag="E5cvXjqFRdU4M56uivd5" version="16.1.0" type="github">
  <diagram id="TO8Cm1dBxi690jHz4DRG" name="Page-1">
    <mxGraphModel dx="1298" dy="3097" grid="1" gridSize="10" guides="1" tooltips="1" connect="1" arrows="1" fold="1" page="1" pageScale="1" pageWidth="827" pageHeight="1169" math="0" shadow="0">
      <root>
        <mxCell id="0" />
        <mxCell id="1" parent="0" />
        <mxCell id="jOTpUi9bDgoCiOJ9HlCg-5" style="edgeStyle=orthogonalEdgeStyle;rounded=0;orthogonalLoop=1;jettySize=auto;html=1;entryX=0;entryY=0.5;entryDx=0;entryDy=0;" edge="1" parent="1" source="jOTpUi9bDgoCiOJ9HlCg-1" target="jOTpUi9bDgoCiOJ9HlCg-2">
          <mxGeometry relative="1" as="geometry" />
        </mxCell>
        <mxCell id="jOTpUi9bDgoCiOJ9HlCg-6" style="edgeStyle=orthogonalEdgeStyle;rounded=0;orthogonalLoop=1;jettySize=auto;html=1;" edge="1" parent="1" source="jOTpUi9bDgoCiOJ9HlCg-1" target="jOTpUi9bDgoCiOJ9HlCg-3">
          <mxGeometry relative="1" as="geometry" />
        </mxCell>
        <mxCell id="jOTpUi9bDgoCiOJ9HlCg-7" style="edgeStyle=orthogonalEdgeStyle;rounded=0;orthogonalLoop=1;jettySize=auto;html=1;entryX=0;entryY=0.5;entryDx=0;entryDy=0;" edge="1" parent="1" source="jOTpUi9bDgoCiOJ9HlCg-1" target="jOTpUi9bDgoCiOJ9HlCg-4">
          <mxGeometry relative="1" as="geometry" />
        </mxCell>
        <mxCell id="jOTpUi9bDgoCiOJ9HlCg-1" value="Physics Body" style="rounded=0;whiteSpace=wrap;html=1;" vertex="1" parent="1">
          <mxGeometry x="50" y="-1890" width="120" height="40" as="geometry" />
        </mxCell>
        <mxCell id="jOTpUi9bDgoCiOJ9HlCg-2" value="static" style="rounded=0;whiteSpace=wrap;html=1;" vertex="1" parent="1">
          <mxGeometry x="230" y="-1960" width="120" height="40" as="geometry" />
        </mxCell>
        <mxCell id="jOTpUi9bDgoCiOJ9HlCg-3" value="daynamic" style="rounded=0;whiteSpace=wrap;html=1;" vertex="1" parent="1">
          <mxGeometry x="230" y="-1890" width="120" height="40" as="geometry" />
        </mxCell>
        <mxCell id="jOTpUi9bDgoCiOJ9HlCg-4" value="kinematic" style="rounded=0;whiteSpace=wrap;html=1;" vertex="1" parent="1">
          <mxGeometry x="230" y="-1820" width="120" height="40" as="geometry" />
        </mxCell>
      </root>
    </mxGraphModel>
  </diagram>
</mxfile>
